<svg xmlns="http://www.w3.org/2000/svg" viewBox="0 0 40 40"><title>Blog</title><path d="M17.31 30.26A12.35 12.35 0 0 0 25 32.8a13.94 13.94 0 0 0 1.72-.1c2.36 2.35 5.09 2.77 7.81 2.83V35a4.25 4.25 0 0 1-2.65-3.53 4.17 4.17 0 0 1 0-.61A8.36 8.36 0 0 0 36 23.9a7.4 7.4 0 0 0-.82-3.38C33 26.23 26.5 30.28 19 30.28h-.64a5.49 5.49 0 0 1-1-.09l-.09.08z"/><path d="M34 16.14c0 6.7-6.72 12.14-15 12.14a17.92 17.92 0 0 1-2.34-.15C13.44 31.34 9.72 31.92 6 32v-.78c2-1 3.62-2.77 3.62-4.81a5.93 5.93 0 0 0-.06-.84A11.41 11.41 0 0 1 4 16.14C4 9.44 10.72 4 19 4s15 5.44 15 12.14zM14.54 26a2.93 2.93 0 0 1 2.5-.86 14.23 14.23 0 0 0 2 .13c6.75 0 12-4.25 12-9.14S25.75 7 19 7 7 11.25 7 16.14a8.46 8.46 0 0 0 4.21 6.93 3 3 0 0 1 1.32 2.06 9.07 9.07 0 0 1 .09 1.28 7.11 7.11 0 0 1-.09 1.14A5 5 0 0 0 14.54 26z"/></svg>
