<svg xmlns="http://www.w3.org/2000/svg" viewBox="0 0 32 32"><title>Blog Entry</title><path d="M23.37,3.56A17.74,17.74,0,0,0,16,2C7.72,2,1,7.44,1,14.14S7.72,26.28,16,26.28a18.72,18.72,0,0,0,2.34-.15C21.56,29.34,25.28,29.92,29,30v-.78c-2-1-3.62-2.76-3.62-4.8a5.63,5.63,0,0,1,.06-.84A11.42,11.42,0,0,0,31,14.14,10.11,10.11,0,0,0,30,9.7L27.66,12A7,7,0,0,1,28,14.14a8.44,8.44,0,0,1-4.21,6.93,3,3,0,0,0-1.32,2.06,8.63,8.63,0,0,0-.1,1.28,11.11,11.11,0,0,0,.1,1.15,9.58,9.58,0,0,1-2-1.56A3,3,0,0,0,18,23.15a15.72,15.72,0,0,1-2,.12C9.25,23.28,4,19,4,14.14S9.25,5,16,5a15,15,0,0,1,5.07.86l2.3-2.3Z"/><path d="M30.3,5.53A2.51,2.51,0,0,1,29.79,7l-1.3,1.3L25,4.8l1.3-1.3a2.53,2.53,0,0,1,4,2ZM14,19.3l4.55-1L27.79,9,24.25,5.51,15,14.75ZM25,9l-7.07,7.07-.71-.71,7.07-7.07L25,9Z"/></svg>
